<svg width="25" height="26" viewBox="0 0 25 26" fill="none" xmlns="http://www.w3.org/2000/svg">
<g id="1976056_desktop_mac_monitor_screen_icon 1">
<path id="Vector" d="M19.9198 3.72501H5.08024C3.61878 3.72501 2.43024 4.91355 2.43024 6.37501V15.9146C2.43024 17.376 3.61878 18.5646 5.08024 18.5646H10.299L9.92086 21.2146H8.79065C8.49795 21.2146 8.26045 21.4521 8.26045 21.7448C8.26045 22.0375 8.49795 22.275 8.79065 22.275H10.3802H14.6198H16.2094C16.5021 22.275 16.7396 22.0375 16.7396 21.7448C16.7396 21.4521 16.5021 21.2146 16.2094 21.2146H15.0792L14.7011 18.5646H19.9198C21.3813 18.5646 22.5698 17.376 22.5698 15.9146V6.37501C22.5698 4.91459 21.3802 3.72501 19.9198 3.72501ZM10.9917 21.2146L11.3698 18.5646H13.6302L14.0084 21.2146H10.9917ZM21.5094 15.9146C21.5094 16.7917 20.7959 17.5042 19.9198 17.5042H14.0907H10.9104H5.08024C4.20315 17.5042 3.49065 16.7906 3.49065 15.9146V15.3844H21.5094V15.9146ZM21.5094 14.325H3.49065V6.37501C3.49065 5.49792 4.2042 4.78542 5.08024 4.78542H19.9198C20.7969 4.78542 21.5094 5.49896 21.5094 6.37501V14.325Z" fill="#BBBEC1"/>
</g>
</svg>
