<svg width="23" height="24" viewBox="0 0 23 24" fill="none" xmlns="http://www.w3.org/2000/svg">
<g id="1976055_edit_edit document_edit file_edited_editing_icon 1">
<path id="Vector" d="M18.79 18.4649C18.79 19.3092 18.1038 20.0213 17.2595 20.0213H5.013C4.16871 20.0213 3.48254 19.3092 3.48254 18.4649V6.21838C3.48254 5.37409 4.16871 4.71284 5.013 4.71284H12.1564V3.69318H5.013C3.60616 3.69318 2.46191 4.81251 2.46191 6.21934V18.4649C2.46191 19.8718 3.60616 21.0409 5.013 21.0409H17.2586C18.6654 21.0409 19.8097 19.8708 19.8097 18.4649V11.3464H18.789L18.79 18.4649Z" fill="#BBBEC1"/>
<path id="Vector_2" d="M19.94 3.53791C19.1695 2.76646 17.825 2.76646 17.0535 3.53791L10.2082 10.3833C10.143 10.4485 10.096 10.5309 10.074 10.62L9.35334 13.5055C9.31021 13.679 9.361 13.863 9.4875 13.9905C9.58429 14.0872 9.71463 14.14 9.84784 14.14C9.88904 14.14 9.93025 14.1352 9.97146 14.1246L12.858 13.403C12.948 13.381 13.0295 13.334 13.0947 13.2688L19.94 6.42346C20.3253 6.03821 20.538 5.5255 20.538 4.98021C20.538 4.43491 20.3263 3.92316 19.94 3.53791ZM12.4737 12.4475L10.5493 12.9286L11.0304 11.0043L16.6932 5.3415L18.1365 6.78475L12.4737 12.4475ZM19.2184 5.70183L18.8581 6.06216L17.4148 4.61891L17.7752 4.25858C18.1604 3.87333 18.8332 3.87333 19.2184 4.25858C19.411 4.45121 19.5174 4.70708 19.5174 4.98021C19.5174 5.25333 19.411 5.50921 19.2184 5.70183Z" fill="#BBBEC1"/>
</g>
</svg>
