<svg width="23" height="24" viewBox="0 0 23 24" fill="none" xmlns="http://www.w3.org/2000/svg">
<g id="7218126_resume_business_cv_work_job_icon 1" clip-path="url(#clip0_57_520)">
<g id="Layer_x0020_1">
<path id="Vector" d="M11.5 8.09333C12.9724 8.09333 14.175 9.29568 14.175 10.7683V12.0101C14.175 12.3197 13.9237 12.571 13.614 12.571H9.38599C9.07631 12.571 8.82502 12.3197 8.82502 12.0101V10.7683C8.82502 9.29595 10.0276 8.09333 11.5 8.09333ZM6.55453 15.0632C5.81671 15.0632 5.81671 13.9413 6.55453 13.9413H16.4455C17.1833 13.9413 17.1833 15.0632 16.4455 15.0632H6.55453ZM6.55453 19.8908C5.81671 19.8908 5.81671 18.7691 6.55453 18.7691H16.4455C17.1833 18.7691 17.1833 19.8908 16.4455 19.8908H6.55453ZM6.55453 17.4771C5.81671 17.4771 5.81671 16.3552 6.55453 16.3552H16.4455C17.1833 16.3552 17.1833 17.4771 16.4455 17.4771H6.55453ZM3.25744 0.782532H15.9158C16.0706 0.782532 16.2108 0.845284 16.3124 0.946883L20.1392 4.7737C20.2487 4.88317 20.3036 5.02688 20.3036 5.17031V22.6565C20.3036 22.9662 20.0523 23.2175 19.7426 23.2175H3.25744C2.94775 23.2175 2.69647 22.9662 2.69647 22.6565V1.3435C2.69647 1.03381 2.94775 0.782532 3.25744 0.782532ZM15.6835 1.9042H3.81814V22.0958H19.1819V5.40258L15.6835 1.9042ZM11.5 3.46133C12.7491 3.46133 13.7616 4.47406 13.7616 5.72313C13.7616 6.97193 12.7491 7.98467 11.5 7.98467C10.2509 7.98467 9.23848 6.97193 9.23848 5.72313C9.23848 4.47406 10.2509 3.46133 11.5 3.46133ZM11.5 4.58327C10.8703 4.58327 10.3601 5.09344 10.3601 5.72313C10.3601 6.35256 10.8703 6.863 11.5 6.863C12.1297 6.863 12.6399 6.35256 12.6399 5.72313C12.6399 5.09344 12.1297 4.58327 11.5 4.58327ZM11.5 9.215C10.647 9.215 9.94669 9.91505 9.94669 10.7683V11.4494H13.0533V10.7683C13.0533 9.91505 12.353 9.215 11.5 9.215Z" fill="#BBBEC1"/>
</g>
</g>
<defs>
<clipPath id="clip0_57_520">
<rect width="23" height="23" fill="white" transform="translate(0 0.5)"/>
</clipPath>
</defs>
</svg>
