<svg width="24" height="24" viewBox="0 0 24 24" fill="none" xmlns="http://www.w3.org/2000/svg">
<g id="user (5) 1" clip-path="url(#clip0_10_223)">
<path id="Vector" d="M14.232 12.528C15.792 11.568 16.8 9.67201 16.8 7.92001C16.8 5.42401 14.76 2.64001 12 2.64001C9.23999 2.64001 7.19999 5.42401 7.19999 7.92001C7.19999 9.67201 8.20799 11.568 9.76799 12.528C6.07199 13.512 3.35999 16.896 3.35999 20.88C3.35999 21.144 3.57599 21.36 3.83999 21.36H20.16C20.424 21.36 20.64 21.144 20.64 20.88C20.64 16.896 17.928 13.512 14.232 12.528ZM8.15999 7.92001C8.15999 5.44801 10.2 3.60001 12 3.60001C13.8 3.60001 15.84 5.44801 15.84 7.92001C15.84 10.392 13.8 12.24 12 12.24C10.2 12.24 8.15999 10.392 8.15999 7.92001ZM4.34399 20.4C4.58399 16.392 7.94399 13.2 12 13.2C16.056 13.2 19.416 16.392 19.656 20.4H4.34399Z" fill="#BBBEC1"/>
<path id="Vector_2" d="M293.76 -189.6V214.56H-134.4V-189.6H293.76ZM295.68 -191.52H-136.32V216.48H295.68V-191.52Z" fill="#0000FF"/>
</g>
<defs>
<clipPath id="clip0_10_223">
<rect width="24" height="24" fill="white"/>
</clipPath>
</defs>
</svg>
