<svg width="27" height="28" viewBox="0 0 27 28" fill="none" xmlns="http://www.w3.org/2000/svg">
<path d="M20.2106 10.7431L19.5356 10.5294C19.575 10.3775 19.6088 10.2256 19.6425 10.0738C20.1488 7.61001 19.8169 5.62438 18.6863 4.97188C17.5556 4.31938 15.8231 4.97188 14.0288 6.56376C13.8544 6.71001 13.68 6.87313 13.5113 7.03626L13.1625 6.72126C11.2838 5.03376 9.39938 4.34751 8.26876 5.00001C7.13813 5.65251 6.86251 7.49188 7.31251 9.82626C7.35751 10.0513 7.40813 10.2819 7.46439 10.5181C7.20001 10.5913 6.94126 10.6756 6.69376 10.76C4.50001 11.5306 3.08813 12.7344 3.08813 14C3.08813 15.2656 4.60126 16.5819 6.89626 17.375C7.07626 17.4369 7.26751 17.4931 7.45876 17.5494C7.39688 17.8025 7.34063 18.05 7.29564 18.2919C6.86251 20.5869 7.20001 22.4094 8.28563 23.0338C9.37126 23.6581 11.2781 23.0338 13.1063 21.4194L13.5394 21.0144C13.725 21.2 13.9163 21.3688 14.1019 21.5319C15.8681 23.0506 17.6175 23.6694 18.6975 23.0394C19.7775 22.4094 20.1769 20.4406 19.71 18.0613C19.6706 17.8756 19.6313 17.69 19.5806 17.4988L19.9688 17.375C22.3594 16.5875 23.9063 15.305 23.9063 14C23.9063 12.695 22.455 11.5138 20.2106 10.7431ZM19.6875 16.5144L19.3331 16.6269C19.046 15.728 18.6964 14.8502 18.2869 14C18.6834 13.1579 19.0217 12.2897 19.2994 11.4013C19.5131 11.4631 19.7213 11.525 19.9181 11.5925C21.8475 12.2563 23.0231 13.2406 23.0231 13.9944C23.0231 14.7481 21.7519 15.8338 19.6875 16.5144ZM18.8325 18.2019C19.0342 19.105 19.0666 20.0376 18.9281 20.9525C18.9091 21.2032 18.8389 21.4474 18.7219 21.6699C18.6048 21.8924 18.4434 22.0886 18.2475 22.2463C17.5894 22.6231 16.1888 22.1281 14.6756 20.8288C14.5013 20.6769 14.3269 20.5194 14.1525 20.3506C14.7818 19.651 15.3643 18.9106 15.8963 18.1344C16.8424 18.0532 17.782 17.9085 18.7088 17.7013C18.765 17.8756 18.8044 18.0444 18.8381 18.2075L18.8325 18.2019ZM10.1869 22.1844C9.96051 22.2919 9.71465 22.3524 9.46422 22.362C9.21379 22.3717 8.964 22.3304 8.73001 22.2406C8.07189 21.8581 7.79626 20.3956 8.16751 18.4381C8.20876 18.2131 8.25939 17.9825 8.31939 17.7463C9.24656 17.9452 10.1863 18.0805 11.1319 18.1513C11.6859 18.9259 12.289 19.6643 12.9375 20.3619L12.5438 20.7275C11.8537 21.353 11.0549 21.8467 10.1869 22.1844ZM7.18314 16.5088C6.30267 16.2321 5.48079 15.7954 4.75876 15.2206C4.553 15.0803 4.37769 14.8998 4.24334 14.6901C4.10899 14.4803 4.01836 14.2456 3.97688 14C3.97688 13.2406 5.10189 12.2731 6.99189 11.615C7.22251 11.5363 7.46439 11.4631 7.71188 11.39C7.99223 12.2811 8.33045 13.153 8.72439 14C8.32249 14.8643 7.98043 15.7551 7.70063 16.6663C7.52063 16.6213 7.35189 16.565 7.18314 16.5088ZM8.19001 9.65751C7.80189 7.65501 8.06063 6.14751 8.71313 5.77063C9.36563 5.39376 10.9631 5.94501 12.5719 7.38501C12.6788 7.47501 12.78 7.57063 12.8869 7.67188C12.2479 8.36268 11.6559 9.09558 11.115 9.86563C10.1802 9.94864 9.25196 10.0933 8.33626 10.2988C8.28001 10.0625 8.23501 9.86563 8.19001 9.65751ZM17.19 11.8738C16.986 11.5221 16.7741 11.1752 16.5544 10.8331C17.2181 10.9175 17.8594 11.03 18.4556 11.165C18.2756 11.7275 18.0506 12.3406 17.7863 12.9594C17.5838 12.5994 17.3813 12.2394 17.1731 11.8738H17.19ZM13.5 8.30751C13.9337 8.77945 14.3429 9.27321 14.7263 9.78688C14.3156 9.78688 13.905 9.75876 13.4888 9.75876C13.0725 9.75876 12.6675 9.75876 12.2625 9.78688C12.6788 9.25251 13.095 8.75751 13.5 8.30751ZM9.81564 11.8794C9.60939 12.2544 9.42189 12.6144 9.25314 12.9594C9.00434 12.368 8.78285 11.7655 8.58939 11.1538C9.18564 11.0244 9.82126 10.9119 10.4794 10.8331C10.26 11.1706 10.0463 11.525 9.84376 11.8794H9.81564ZM10.4681 17.195C9.82372 17.126 9.18343 17.0228 8.55001 16.8856C8.73563 16.295 8.96063 15.6763 9.22501 15.0519C9.41063 15.4119 9.60751 15.7719 9.78751 16.1263C10.0406 16.4919 10.2544 16.8463 10.4794 17.195H10.4681ZM13.5225 19.7206C13.0792 19.2416 12.6605 18.7403 12.2681 18.2188C12.6675 18.2188 13.0781 18.2469 13.4888 18.2469C13.8994 18.2469 14.3325 18.2469 14.7431 18.2188C14.3667 18.7403 13.963 19.2416 13.5338 19.7206H13.5225ZM17.7694 15.0181C18.0327 15.6172 18.2655 16.2293 18.4669 16.8519C17.8262 16.9949 17.1784 17.1038 16.5263 17.1781C16.74 16.835 16.9538 16.4863 17.1619 16.1206C17.37 15.755 17.5894 15.3838 17.7806 15.0181H17.7694ZM16.4081 15.6875C16.0819 16.25 15.7444 16.8125 15.4069 17.3019C14.7881 17.3413 14.1525 17.3638 13.5 17.3638C12.8475 17.3638 12.2231 17.3638 11.6156 17.3075C11.25 16.7788 10.9181 16.25 10.5975 15.6875C10.2769 15.125 9.97876 14.5625 9.70876 14C9.97876 13.4375 10.2713 12.875 10.5919 12.3125C10.9181 11.7575 11.2556 11.2231 11.6044 10.7094C12.2231 10.6588 12.8588 10.6363 13.5 10.6363C14.1469 10.6363 14.7825 10.6363 15.4013 10.7094C15.7444 11.2156 16.0819 11.75 16.4025 12.3069C16.7231 12.8638 17.0269 13.4319 17.3025 13.9944C17.0175 14.5531 16.7194 15.1175 16.4081 15.6875ZM18.2419 5.74251C18.9394 6.14751 19.2094 7.76751 18.7706 9.89376C18.7706 10.0288 18.7088 10.1694 18.675 10.31C17.7485 10.099 16.8089 9.95056 15.8625 9.86563C15.3263 9.09669 14.74 8.36386 14.1075 7.67188C14.265 7.52001 14.4225 7.37376 14.5856 7.23313C16.1494 5.89438 17.5838 5.36563 18.2419 5.74251Z" fill="#BBBEC1"/>
<path d="M13.5 15.845C14.5283 15.845 15.3619 15.0114 15.3619 13.9831C15.3619 12.9548 14.5283 12.1212 13.5 12.1212C12.4717 12.1212 11.6381 12.9548 11.6381 13.9831C11.6381 15.0114 12.4717 15.845 13.5 15.845Z" fill="#BBBEC1"/>
</svg>
