<svg width="30" height="30" viewBox="0 0 30 30" fill="none" xmlns="http://www.w3.org/2000/svg">
<g id="9023067_arrow_circle_up_right_fill_icon 1" clip-path="url(#clip0_57_307)">
<path id="Vector" d="M23.6133 6.38672C21.9094 4.68098 19.7378 3.51894 17.3733 3.04763C15.0088 2.57633 12.5576 2.81692 10.3299 3.73898C8.10215 4.66105 6.19796 6.22314 4.85821 8.22765C3.51846 10.2322 2.80334 12.589 2.80334 15C2.80334 17.411 3.51846 19.7679 4.85821 21.7724C6.19796 23.7769 8.10215 25.339 10.3299 26.261C12.5576 27.1831 15.0088 27.4237 17.3733 26.9524C19.7378 26.4811 21.9094 25.319 23.6133 23.6133C24.745 22.4825 25.6428 21.1398 26.2554 19.6619C26.8679 18.184 27.1832 16.5998 27.1832 15C27.1832 13.4002 26.8679 11.816 26.2554 10.3381C25.6428 8.8602 24.745 7.51749 23.6133 6.38672ZM19.2188 17.3438C19.2188 17.5924 19.12 17.8309 18.9442 18.0067C18.7684 18.1825 18.5299 18.2813 18.2813 18.2813C18.0326 18.2813 17.7942 18.1825 17.6183 18.0067C17.4425 17.8309 17.3438 17.5924 17.3438 17.3438V13.9805L12.3867 18.9492C12.2055 19.1192 11.9672 19.2154 11.7188 19.2188C11.4698 19.2177 11.2307 19.1212 11.0508 18.9492C10.8747 18.7715 10.776 18.5314 10.776 18.2813C10.776 18.0311 10.8747 17.791 11.0508 17.6133L16.0195 12.6563H12.6563C12.4076 12.6563 12.1692 12.5575 11.9933 12.3817C11.8175 12.2059 11.7188 11.9674 11.7188 11.7188C11.7188 11.4701 11.8175 11.2317 11.9933 11.0558C12.1692 10.88 12.4076 10.7813 12.6563 10.7813H18.2813C18.402 10.7809 18.5215 10.8049 18.6328 10.8516C18.8643 10.9452 19.0495 11.1262 19.1484 11.3555C19.1944 11.4711 19.2182 11.5943 19.2188 11.7188V17.3438Z" fill="#80C2FF"/>
</g>
<defs>
<clipPath id="clip0_57_307">
<rect width="30" height="30" fill="white"/>
</clipPath>
</defs>
</svg>
