<svg width="24" height="24" viewBox="0 0 24 24" fill="none" xmlns="http://www.w3.org/2000/svg">
<g id="9224364_verified_check_mark_verification_badge_icon 1" clip-path="url(#clip0_11_390)">
<g id="21. Verified">
<path id="Vector" d="M22.51 13.76C22.1391 13.2481 21.9395 12.6321 21.9395 12C21.9395 11.3679 22.1391 10.7519 22.51 10.24L23.27 9.18999C23.3629 9.06177 23.424 8.91332 23.4484 8.75686C23.4727 8.60039 23.4596 8.44038 23.41 8.28999C23.3599 8.14118 23.276 8.00598 23.165 7.89495C23.054 7.78393 22.9188 7.70009 22.77 7.64999L21.54 7.24999C20.9374 7.05563 20.4122 6.67484 20.0402 6.16258C19.6681 5.65033 19.4684 5.0331 19.47 4.39999V3.09999C19.4699 2.94215 19.4324 2.78659 19.3606 2.64601C19.2888 2.50544 19.1848 2.38385 19.057 2.29119C18.9293 2.19853 18.7814 2.13743 18.6255 2.11289C18.4695 2.08835 18.31 2.10106 18.16 2.14999L16.92 2.54999C16.318 2.74479 15.6698 2.74427 15.0681 2.5485C14.4665 2.35273 13.9421 1.97173 13.57 1.45999L12.81 0.40999C12.7129 0.288299 12.5897 0.190036 12.4495 0.122502C12.3093 0.0549673 12.1556 0.0198975 12 0.0198975C11.8443 0.0198975 11.6907 0.0549673 11.5505 0.122502C11.4102 0.190036 11.287 0.288299 11.19 0.40999L10.43 1.45999C10.0579 1.97173 9.53349 2.35273 8.93181 2.5485C8.33014 2.74427 7.68196 2.74479 7.07997 2.54999L5.83997 2.14999C5.68991 2.10106 5.5304 2.08835 5.37449 2.11289C5.21857 2.13743 5.07068 2.19853 4.9429 2.29119C4.81513 2.38385 4.7111 2.50544 4.63933 2.64601C4.56756 2.78659 4.53009 2.94215 4.52997 3.09999V4.39999C4.53151 5.0331 4.33183 5.65033 3.95977 6.16258C3.58772 6.67484 3.06251 7.05563 2.45997 7.24999L1.22997 7.64999C1.08116 7.70009 0.945959 7.78393 0.834933 7.89495C0.723907 8.00598 0.640068 8.14118 0.589972 8.28999C0.540383 8.44038 0.527217 8.60039 0.551557 8.75686C0.575896 8.91332 0.637045 9.06177 0.729972 9.18999L1.48997 10.24C1.86082 10.7519 2.06049 11.3679 2.06049 12C2.06049 12.6321 1.86082 13.2481 1.48997 13.76L0.729972 14.81C0.637045 14.9382 0.575896 15.0867 0.551557 15.2431C0.527217 15.3996 0.540383 15.5596 0.589972 15.71C0.640068 15.8588 0.723907 15.994 0.834933 16.105C0.945959 16.2161 1.08116 16.2999 1.22997 16.35L2.45997 16.75C3.06251 16.9444 3.58772 17.3251 3.95977 17.8374C4.33183 18.3497 4.53151 18.9669 4.52997 19.6V20.9C4.53009 21.0578 4.56756 21.2134 4.63933 21.354C4.7111 21.4945 4.81513 21.6161 4.9429 21.7088C5.07068 21.8015 5.21857 21.8626 5.37449 21.8871C5.5304 21.9116 5.68991 21.8989 5.83997 21.85L7.06997 21.45C7.67324 21.2519 8.32387 21.2508 8.92785 21.4467C9.53182 21.6426 10.0579 22.0255 10.43 22.54L11.19 23.59C11.2833 23.7171 11.4053 23.8205 11.546 23.8917C11.6867 23.963 11.8422 24.0001 12 24.0001C12.1577 24.0001 12.3132 23.963 12.4539 23.8917C12.5946 23.8205 12.7166 23.7171 12.81 23.59L13.57 22.54C13.9427 22.0262 14.4688 21.6439 15.0725 21.448C15.6763 21.2522 16.3266 21.2529 16.93 21.45L18.16 21.85C18.31 21.8989 18.4695 21.9116 18.6255 21.8871C18.7814 21.8626 18.9293 21.8015 19.057 21.7088C19.1848 21.6161 19.2888 21.4945 19.3606 21.354C19.4324 21.2134 19.4699 21.0578 19.47 20.9V19.6C19.4684 18.9669 19.6681 18.3497 20.0402 17.8374C20.4122 17.3251 20.9374 16.9444 21.54 16.75L22.77 16.35C22.9188 16.2999 23.054 16.2161 23.165 16.105C23.276 15.994 23.3599 15.8588 23.41 15.71C23.4596 15.5596 23.4727 15.3996 23.4484 15.2431C23.424 15.0867 23.3629 14.9382 23.27 14.81L22.51 13.76ZM16.71 10.707L11.71 15.707C11.5224 15.8945 11.2681 15.9998 11.003 15.9998C10.7378 15.9998 10.4835 15.8945 10.296 15.707L7.29597 12.707C7.20046 12.6147 7.12428 12.5044 7.07187 12.3824C7.01946 12.2604 6.99188 12.1292 6.99072 11.9964C6.98957 11.8636 7.01487 11.7319 7.06515 11.609C7.11543 11.4861 7.18968 11.3745 7.28358 11.2806C7.37747 11.1867 7.48912 11.1124 7.61202 11.0622C7.73491 11.0119 7.86659 10.9866 7.99937 10.9877C8.13215 10.9889 8.26337 11.0165 8.38538 11.0689C8.50738 11.1213 8.61772 11.1975 8.70997 11.293L11 13.586L15.293 9.29299C15.4816 9.11083 15.7342 9.01004 15.9964 9.01232C16.2586 9.0146 16.5094 9.11976 16.6948 9.30517C16.8802 9.49058 16.9854 9.74139 16.9876 10.0036C16.9899 10.2658 16.8891 10.5184 16.707 10.707H16.71Z" fill="white" fill-opacity="0.73"/>
</g>
</g>
<defs>
<clipPath id="clip0_11_390">
<rect width="24" height="24" fill="white"/>
</clipPath>
</defs>
</svg>
