<svg width="32" height="32" viewBox="0 0 32 32" fill="none" xmlns="http://www.w3.org/2000/svg">
<g id="icon">
<g id="mail">
<path id="Vector" d="M29 6.00002H3H2.92C2.85032 5.99055 2.77968 5.99055 2.71 6.00002L2.54 6.07002C2.4856 6.09622 2.43511 6.12988 2.39 6.17002C2.33311 6.20871 2.28252 6.25593 2.24 6.31002L2.18 6.37002C2.17624 6.3999 2.17624 6.43014 2.18 6.46002C2.14734 6.52066 2.12055 6.58428 2.1 6.65002C2.05804 6.72964 2.02452 6.81343 2 6.90002V7.00002V25C2 25.2652 2.10536 25.5196 2.29289 25.7071C2.48043 25.8947 2.73478 26 3 26H29C29.2652 26 29.5196 25.8947 29.7071 25.7071C29.8946 25.5196 30 25.2652 30 25V7.00002C30 6.7348 29.8946 6.48045 29.7071 6.29291C29.5196 6.10538 29.2652 6.00002 29 6.00002ZM16 14.81L6.2 8.00002H27.09L16 14.81ZM4 24V8.91002L15.43 16.82C15.4879 16.854 15.5481 16.8841 15.61 16.91H15.69C15.7883 16.9552 15.8928 16.9856 16 17C16.1422 16.9962 16.282 16.9621 16.41 16.9H16.48L28 9.79002V24H4Z" fill="url(#paint0_linear_22_2471)"/>
</g>
</g>
<defs>
<linearGradient id="paint0_linear_22_2471" x1="2" y1="15.9965" x2="30" y2="15.9965" gradientUnits="userSpaceOnUse">
<stop stop-color="#84FAB0"/>
<stop offset="1" stop-color="#8FD3F4"/>
</linearGradient>
</defs>
</svg>
