<svg width="24" height="24" viewBox="0 0 24 24" fill="none" xmlns="http://www.w3.org/2000/svg">
<g id="394187_github_icon 2">
<g id="Group">
<path id="Vector" fill-rule="evenodd" clip-rule="evenodd" d="M11.9975 2.20947C6.23974 2.20947 1.5708 6.87743 1.5708 12.6361C1.5708 17.2429 4.55839 21.1512 8.70121 22.53C9.22225 22.6264 9.41362 22.3037 9.41362 22.0283C9.41362 21.7798 9.40404 20.9583 9.39951 20.0871C6.49879 20.7179 5.88671 18.8569 5.88671 18.8569C5.41236 17.6518 4.72905 17.3312 4.72905 17.3312C3.78295 16.6841 4.80037 16.6974 4.80037 16.6974C5.84727 16.7709 6.39866 17.7721 6.39866 17.7721C7.3286 19.366 8.83781 18.9051 9.43289 18.6387C9.52649 17.9649 9.79659 17.5047 10.0949 17.2444C7.77894 16.9808 5.34431 16.0867 5.34431 12.0915C5.34431 10.9532 5.75167 10.0231 6.41871 9.29285C6.31047 9.03013 5.95353 7.96972 6.51974 6.53344C6.51974 6.53344 7.39535 6.25337 9.38768 7.60237C10.2194 7.37131 11.1115 7.25545 11.9975 7.25143C12.8836 7.25545 13.7762 7.37131 14.6095 7.60237C16.5996 6.25337 17.474 6.53344 17.474 6.53344C18.0415 7.96972 17.6846 9.03013 17.5763 9.29285C18.2449 10.0231 18.6494 10.9532 18.6494 12.0915C18.6494 16.0963 16.2102 16.9779 13.8883 17.2361C14.2623 17.5597 14.5955 18.1942 14.5955 19.167C14.5955 20.5621 14.5835 21.6849 14.5835 22.0283C14.5835 22.3059 14.7712 22.631 15.2996 22.5287C19.4403 21.1484 22.4241 17.2414 22.4241 12.6361C22.4241 6.87743 17.7558 2.20947 11.9975 2.20947Z" fill="white"/>
<path id="Vector_2" d="M5.51998 17.1801C5.49704 17.2321 5.41544 17.2476 5.34123 17.212C5.26554 17.178 5.22322 17.1073 5.24765 17.0554C5.27008 17.002 5.35166 16.9872 5.42722 17.0228C5.50296 17.0569 5.54614 17.1282 5.51998 17.1801Z" fill="white"/>
<path id="Vector_3" d="M5.94218 17.6509C5.89249 17.6969 5.79513 17.6755 5.72917 17.6027C5.66089 17.53 5.64828 17.4327 5.69874 17.386C5.75 17.34 5.84428 17.3615 5.91252 17.4343C5.98085 17.5078 5.99413 17.6042 5.94218 17.6509Z" fill="white"/>
<path id="Vector_4" d="M6.35356 18.2512C6.28964 18.2957 6.1851 18.254 6.1205 18.1613C6.05658 18.0685 6.0566 17.9573 6.122 17.9127C6.1866 17.8682 6.28966 17.9083 6.35506 18.0003C6.41882 18.0946 6.4188 18.2059 6.35356 18.2512Z" fill="white"/>
<path id="Vector_5" d="M6.91684 18.8315C6.85964 18.8945 6.73788 18.8774 6.6489 18.7915C6.55767 18.7075 6.53237 18.5882 6.58952 18.5251C6.64756 18.462 6.76997 18.4797 6.85963 18.565C6.95018 18.649 6.97767 18.769 6.91684 18.8315Z" fill="white"/>
<path id="Vector_6" d="M7.69343 19.1687C7.66816 19.2503 7.551 19.2874 7.43293 19.2527C7.31491 19.2169 7.23788 19.1213 7.26162 19.0388C7.28605 18.9566 7.40387 18.918 7.52275 18.9551C7.64064 18.9906 7.71786 19.0855 7.69343 19.1687Z" fill="white"/>
<path id="Vector_7" d="M8.54682 19.2308C8.54966 19.3167 8.4495 19.3881 8.3256 19.3896C8.20097 19.3924 8.09995 19.3229 8.09863 19.2382C8.09863 19.1513 8.19653 19.0808 8.3212 19.0787C8.44511 19.0763 8.54682 19.1454 8.54682 19.2308Z" fill="white"/>
<path id="Vector_8" d="M9.34112 19.0958C9.35594 19.1796 9.26972 19.2658 9.14661 19.2887C9.02558 19.311 8.91365 19.259 8.89815 19.1759C8.88317 19.0899 8.97079 19.0038 9.09173 18.9815C9.21501 18.9601 9.32542 19.0104 9.34112 19.0958Z" fill="white"/>
</g>
</g>
</svg>
