<svg width="33" height="33" viewBox="0 0 33 33" fill="none" xmlns="http://www.w3.org/2000/svg">
<g id="Icon">
<path id="Vector" d="M16.5 5.28516C22.6875 5.28516 27.7148 9.86391 27.7148 15.492C27.7148 21.12 22.6875 25.7013 16.5 25.7013C15.482 25.7016 14.4678 25.5751 13.481 25.3249L12.8674 25.1702L12.3054 25.459L9.98508 26.6527V23.8322L9.32508 23.3166C6.75469 21.3804 5.28516 18.5238 5.28516 15.492C5.28516 9.86391 10.3125 5.28516 16.5 5.28516ZM16.5 3.60938C9.3818 3.60938 3.60938 8.93062 3.60938 15.492C3.60938 19.1838 5.43469 22.4813 8.29898 24.6623V29.3906L13.0685 26.9466C14.19 27.2321 15.3427 27.3768 16.5 27.3771C23.6182 27.3771 29.3906 22.0559 29.3906 15.4945C29.3906 8.9332 23.6182 3.60938 16.5 3.60938Z" fill="url(#paint0_linear_22_2493)"/>
<path id="Vector_2" d="M8.55682 19.0934L15.1517 12.019L18.5007 15.3912L24.4432 12.1428L17.8226 19.3693L14.5742 15.8192L8.55682 19.0934Z" fill="url(#paint1_linear_22_2493)"/>
</g>
<defs>
<linearGradient id="paint0_linear_22_2493" x1="3.60938" y1="16.5" x2="29.3906" y2="16.5" gradientUnits="userSpaceOnUse">
<stop stop-color="#84FAB0"/>
<stop offset="1" stop-color="#8FD3F4"/>
</linearGradient>
<linearGradient id="paint1_linear_22_2493" x1="8.55682" y1="15.6942" x2="24.4432" y2="15.6942" gradientUnits="userSpaceOnUse">
<stop stop-color="#84FAB0"/>
<stop offset="1" stop-color="#8FD3F4"/>
</linearGradient>
</defs>
</svg>
