<svg width="24" height="24" viewBox="0 0 24 24" fill="none" xmlns="http://www.w3.org/2000/svg">
<g id="2609571_chat_media_social_telegram_icon 1" clip-path="url(#clip0_207_518)">
<g id="Group">
<path id="Vector" d="M24 18.6141C24 21.5906 21.5859 24 18.6141 24H5.38594C2.41406 24 0 21.5859 0 18.6141V5.38594C0 2.41406 2.41406 0 5.38594 0H18.6141C21.5859 0 24 2.41406 24 5.38594V18.6141Z" fill="white"/>
<path id="Vector_2" d="M17.9577 6.28602L5.4514 11.1563C5.04828 11.3157 5.07171 11.897 5.4889 12.0188L8.66703 12.9563L9.85296 16.7204C9.97484 17.1142 10.4764 17.2313 10.7623 16.936L12.4077 15.2579L15.6327 17.6251C16.0264 17.9157 16.5889 17.7001 16.6873 17.222L18.8202 7.01259C18.928 6.51571 18.4358 6.09852 17.9577 6.28602ZM16.392 8.55009L10.5842 13.6876C10.528 13.7391 10.4905 13.8095 10.4811 13.8845L10.2561 15.872C10.2467 15.9376 10.1577 15.947 10.1389 15.8813L9.22015 12.9141C9.17796 12.7782 9.23421 12.6329 9.35609 12.5579L16.2139 8.30165C16.3686 8.21259 16.5327 8.42821 16.392 8.55009Z" fill="#393C46"/>
</g>
</g>
<defs>
<clipPath id="clip0_207_518">
<rect width="24" height="24" fill="white"/>
</clipPath>
</defs>
</svg>
